<?xml version="1.0" encoding="utf-8"?>
<!-- Generator: Adobe Illustrator 24.2.3, SVG Export Plug-In . SVG Version: 6.00 Build 0)  -->
<svg version="1.1" id="Capa_1" xmlns="http://www.w3.org/2000/svg" xmlns:xlink="http://www.w3.org/1999/xlink" x="0px" y="0px"
	 viewBox="0 0 512 512" style="enable-background:new 0 0 512 512;" xml:space="preserve">
<style type="text/css">
	.st0{fill:#F9F7F4;}
</style>
<g>
	<g>
		<path class="st0" d="M465.5,116.4c-25.6,0-46.5,20.9-46.5,46.5c0,4.2,0.5,8.1,1.6,11.9l-82.6,82.9c-3.7-1.2-7.9-1.6-12.1-1.6
			s-8.4,0.5-12.1,1.6l-59.3-59.3c1.2-3.7,1.6-7.9,1.6-12.1c0-25.6-20.9-46.5-46.5-46.5s-46.5,20.9-46.5,46.5c0,4.2,0.5,8.4,1.6,12.1
			L58.4,304.2c-3.7-1.2-7.7-1.6-11.9-1.6C20.9,302.5,0,323.5,0,349.1s20.9,46.5,46.5,46.5s46.5-20.9,46.5-46.5
			c0-4.2-0.5-8.1-1.6-11.9l105.9-106.1c3.7,1.2,7.9,1.6,12.1,1.6c4.2,0,8.4-0.5,12.1-1.6l59.3,59.3c-1.2,3.7-1.6,7.9-1.6,12.1
			c0,25.6,20.9,46.5,46.5,46.5s46.5-20.9,46.5-46.5c0-4.2-0.5-8.4-1.6-12.1l82.9-82.6c3.7,1.2,7.7,1.6,11.9,1.6
			c25.6,0,46.5-20.9,46.5-46.5C512,137.3,491.1,116.4,465.5,116.4z"/>
	</g>
</g>
</svg>
