<?xml version="1.0" encoding="utf-8"?>
<!-- Generator: Adobe Illustrator 24.2.3, SVG Export Plug-In . SVG Version: 6.00 Build 0)  -->
<svg version="1.1" id="Capa_1" xmlns="http://www.w3.org/2000/svg" xmlns:xlink="http://www.w3.org/1999/xlink" x="0px" y="0px"
	 viewBox="0 0 512 512" style="enable-background:new 0 0 512 512;" xml:space="preserve">
<style type="text/css">
	.st0{fill:#F9F7F4;}
</style>
<g>
	<g>
		<path class="st0" d="M388.6,0c-32.8,0-58,18.5-74.7,45.9C297.2,18.5,272,0,239.2,0c-52.6,0-89.7,45.2-89.7,99.2
			c0,28.4,10.7,54.7,33.5,82.7c27.2,33.2,70,67.4,120.9,113.2c5.7,5.1,14.3,5.1,20,0c50.9-45.8,93.7-80,120.9-113.2
			c22.9-28,33.5-54.3,33.5-82.7C478.3,45,441.1,0,388.6,0z M313.9,263.9c-82.5-73.4-134.5-111.3-134.5-164.7
			c0-39.5,25.7-69.3,59.8-69.3c18.1,0,33.6,8.9,45.9,26.5c10.1,14.4,14.3,29.3,14.4,29.7c1.8,6.5,7.7,11.1,14.4,11.1
			c6.8,0,12.7-4.6,14.4-11.1c0.1-0.6,15.5-56.2,60.3-56.2c34.1,0,59.8,29.8,59.8,69.3C448.4,152.6,396.3,190.6,313.9,263.9z"/>
	</g>
</g>
<g>
	<g>
		<path class="st0" d="M435.3,302.8c-12.4,0-24.4,5.2-32.8,14.3l-43.9,47.2c-5.7-18.3-22.7-31.5-42.8-31.5h-55.2
			c-3.7-1.6-7.1-3.8-10.2-6.5c-39.4-34.7-98.8-34.7-138.2,0l-41.4,36.4l-24,0c0,0,0,0,0,0c-8.2,0-14.9,6.7-14.9,14.9v119.6
			c0,8.3,6.7,14.9,14.9,14.9h269c32.8,0,64-15.6,83.7-41.8l71.7-95.7c5.9-7.8,9-17.1,9-26.9C480.2,322.9,460.1,302.8,435.3,302.8z
			 M447.3,356.6l-71.8,95.7c-14,18.7-36.4,29.9-59.8,29.9H61.7v-89.7l14.7,0c3.6,0,7.1-1.3,9.9-3.7l45.6-40.1
			c28.1-24.8,70.6-24.8,98.7,0c6.3,5.5,19.3,14,27,14h58.1c8.2,0,14.9,6.7,14.9,14.9s-6.7,14.9-14.9,14.9h-89.7
			c-8.3,0-14.9,6.7-14.9,14.9c0,8.3,6.7,14.9,14.9,14.9h99.7c12.4,0,24.4-5.2,32.8-14.3l65.8-70.6c2.9-3.1,6.7-4.8,10.9-4.8
			c8.2,0,14.9,6.7,14.9,14.9C450.3,350.9,449.3,354,447.3,356.6z"/>
	</g>
</g>
</svg>
