<?xml version="1.0" encoding="utf-8"?>
<!-- Generator: Adobe Illustrator 24.2.3, SVG Export Plug-In . SVG Version: 6.00 Build 0)  -->
<svg version="1.1" id="Capa_1" xmlns="http://www.w3.org/2000/svg" xmlns:xlink="http://www.w3.org/1999/xlink" x="0px" y="0px"
	 viewBox="0 0 416.6 416.6" style="enable-background:new 0 0 416.6 416.6;" xml:space="preserve">
<style type="text/css">
	.st0{fill:#F9F7F4;}
</style>
<g>
	<g>
		<path class="st0" d="M53,202.8c3.6,0,7.1-1.3,9.9-4c5.7-5.5,5.9-14.5,0.4-20.2l-38.7-40.1c-5.5-5.7-14.5-5.9-20.2-0.4
			c-5.7,5.5-5.9,14.5-0.4,20.2l38.7,40.1C45.5,201.4,49.2,202.8,53,202.8z"/>
		<path class="st0" d="M97.3,154.7c2.5,5.1,7.6,8,12.8,8c2.1,0,4.2-0.5,6.3-1.4c7.1-3.5,10-12,6.6-19.1L98.6,92.1
			c-3.5-7.1-12-10-19.1-6.6c-7.1,3.5-10,12-6.6,19.1L97.3,154.7z"/>
		<path class="st0" d="M160.6,130.6c1.1,7.1,7.2,12.2,14.1,12.2c0.7,0,1.4-0.1,2.2-0.2c7.8-1.2,13.2-8.5,12-16.3l-8.4-55.1
			c-1.2-7.8-8.5-13.2-16.3-12c-7.8,1.2-13.2,8.5-12,16.3L160.6,130.6z"/>
		<path class="st0" d="M239.7,142.5c0.7,0.1,1.4,0.2,2.2,0.2c6.9,0,13-5.1,14.1-12.1l8.4-55.1c1.2-7.8-4.2-15.1-12-16.3
			c-7.8-1.2-15.1,4.2-16.3,12l-8.4,55.1C226.5,134.1,231.9,141.4,239.7,142.5z"/>
		<path class="st0" d="M300.2,161.3c2,1,4.1,1.4,6.3,1.4c5.3,0,10.4-3,12.9-8l24.4-50.1c3.5-7.1,0.5-15.6-6.6-19.1
			C330,82,321.5,85,318,92.1l-24.4,50.1C290.1,149.3,293.1,157.9,300.2,161.3z"/>
		<path class="st0" d="M412.2,138.1c-5.7-5.5-14.7-5.3-20.2,0.4l-38.7,40.1c-5.5,5.7-5.3,14.7,0.4,20.2c2.8,2.7,6.3,4,9.9,4
			c3.7,0,7.5-1.5,10.3-4.4l38.7-40.1C418.1,152.7,417.9,143.6,412.2,138.1z"/>
		<path class="st0" d="M374.3,244.8c-0.7-0.9-17.5-21.9-45.6-42.6c-38.1-28-79.7-42.8-120.3-42.8c-40.6,0-82.3,14.8-120.3,42.8
			c-27.5,20.2-43.9,40.3-45.7,42.6l-8.4,10.6c-1.4,1.8-1.4,4.4,0,6.2l8.4,10.6C43,273.1,59.7,294,88,314.8
			c38.1,28,79.7,42.8,120.3,42.8c40.6,0,82.2-14.8,120.3-42.8c28.1-20.7,44.9-41.7,45.7-42.6l8.4-10.6c1.4-1.8,1.4-4.4,0-6.2
			L374.3,244.8z M357.5,259c-0.6,0.8-15.6,19.5-41.5,38.6c-34.4,25.3-71.6,38.6-107.6,38.6c-36,0-73.3-13.3-107.6-38.6
			c-26-19.1-41.4-38.4-41.5-38.6l-0.3-0.4l0.4-0.4c0.2-0.2,15.5-19.5,41.5-38.6c22.5-16.5,46.1-27.9,69.9-33.9
			c6.3,3.9,10.6,11,10.6,19c0,12.3-10,22.3-22.3,22.3c-6.5,0-12.3-2.8-16.4-7.2c-1.2,5-1.8,10.2-1.8,15.5
			c0,37.4,30.3,67.7,67.7,67.7c37.4,0,67.7-30.3,67.7-67.7c0-17.9-7-34.2-18.3-46.3c19.8,6.5,39.5,16.7,58.3,30.5
			c25.9,19.1,40.9,37.8,41.5,38.6l0.3,0.4L357.5,259z"/>
	</g>
</g>
</svg>
