<?xml version="1.0" encoding="utf-8"?>
<!-- Generator: Adobe Illustrator 24.2.3, SVG Export Plug-In . SVG Version: 6.00 Build 0)  -->
<svg version="1.1" id="a751cec9-7d0e-4c8a-a2d9-3a6c65a20454"
	 xmlns="http://www.w3.org/2000/svg" xmlns:xlink="http://www.w3.org/1999/xlink" x="0px" y="0px" viewBox="0 0 485 667.1"
	 style="enable-background:new 0 0 485 667.1;" xml:space="preserve">
<style type="text/css">
	.st0{fill:#FFB76C;}
	.st1{fill:#323333;}
	.st2{fill:#9F616A;}
	.st3{fill:#C6C6C6;}
	.st4{fill:#CCCCCC;}
	.st5{fill:#F2F2F2;}
	.st6{fill:#E6E6E6;}
	.st7{opacity:0.1;enable-background:new    ;}
</style>
<path class="st0" d="M485,630.2H0l0.2-51.4c0.6-130.1,104.4-237.3,234.5-239.5c1.4,0,2.8,0,4.2,0l0,0c29.3,0,58.3,5.2,85.8,15.4
	c92.1,34.3,153.8,121.4,158,219.5L485,630.2z"/>
<polygon class="st1" points="234.3,400.2 255.7,415.7 277,598.3 327.5,598.3 310.1,390.5 240.1,363.3 "/>
<path class="st1" d="M144.9,341.9c0,0-5.8,66.1,17.5,68s112.7-19.4,112.7-19.4L317.8,542l64.1-33c0,0-38.9-171-62.2-180.7
	s-101-29.1-101-29.1l-56.3,9.7L144.9,341.9z"/>
<path class="st1" d="M284.8,594.4c0,0-11.7,44.7-3.9,48.6c4.7,2.3,9.2,4.9,13.6,7.8V643c0,0,9.7,9.7,9.7,17.5s52.5,9.7,52.5,0
	s-1.9-21.4-11.7-27.2s-21.4-38.9-21.4-38.9L284.8,594.4z"/>
<polygon class="st1" points="341.1,514.8 345,551.7 358.6,575 391.7,538.1 366.4,497.3 "/>
<path class="st1" d="M372.2,551.7c0,0,7.2-24.5,14.3-21.9s34.3,27.8,34.3,27.8l19.4,11.7c0,0,38.9,3.9,27.2,15.5
	S413,612,393.6,604.2s-23.3-9.7-23.3-9.7l-5.8,3.9l-23.3-5.8l3.9-40.8C345,551.7,350.9,569.2,372.2,551.7z"/>
<circle class="st2" cx="211" cy="54.3" r="44.7"/>
<path class="st2" d="M182.8,80.6c0,0,3.9,40.8-7.8,40.8s1.9,50.5,33,50.5s42.7-60.2,42.7-60.2s-21.4-7.8-17.5-33
	S182.8,80.6,182.8,80.6z"/>
<path class="st3" d="M179.7,118.3l-16.3,7L119.1,144c-3.7,1.6-5.9,5.3-5.4,9.3L130.4,302c0,0-17.5,36.9,9.7,38.9l3.9,13.6l31.1-36.9
	l116.6-3.9l1.9-188.5l-53.3-21.1C240.2,104.2,233,144.3,179.7,118.3z"/>
<path class="st3" d="M125.5,149.5l-7.2-2.1c-3.1-0.9-6.4,0.9-7.3,4.1c-0.1,0.2-0.1,0.5-0.2,0.7l-19,119.6
	c-1.5,8.9-0.1,17.9,4.1,25.9c5.9,11.1,18.1,21.3,43.2,9.2l17.5-126.3L125.5,149.5z"/>
<path class="st3" d="M271.2,122.3l23.3,3.9l64.1,89.4l5.8,15.5l36.9-11.7c0,0-1.9,17.5,17.5,15.5c0,0-23.3,64.1-71.9,44.7
	s-64-77.6-64-77.6L271.2,122.3z"/>
<polygon class="st4" points="298.4,161.2 211,126.2 207.1,137.9 247.9,172.9 "/>
<path class="st1" d="M184.1,57.2c1.7-0.4,1.9-2.6,1.9-4.3c0.3-9.1,5.8-18.5,14.6-21.2c3.4-0.9,6.9-1.1,10.3-0.6
	c4.9,0.7,9.6,2.2,14,4.7c2.3,1.3,4.5,2.8,7.1,3.2c1.7,0.3,9.1,2.4,10.8,2.7c3.7,0.7,7.2,4,10.8,2.8c3.4-1.2,4.2-5.6,4.3-9.3
	c0.2-8.3-6.1-19.7-11.6-25.9c-4.2-4.7-10.5-6.8-16.7-7.9C222.3,0.2,215-0.2,207.7,0c-9.9,0.2-20.1,0.9-29,5.2S162.3,18,161.9,27.9
	c-0.1,2.1,0.1,4.1,0,6.2c-0.4,5-3.1,9.5-4.3,14.4c-1.8,7.2-0.5,14.9,3.7,21.1c3.3,4.9,16.5,9.3,16.4,15.2c2.4-2.5-3.2-5-0.9-7.5
	c2.2-1.7,2.9-4.7,1.8-7.2l-2.5-9.9c-0.5-1.8-0.9-3.8-0.2-5.5C178.4,47.9,181.3,57.9,184.1,57.2z"/>
<polygon class="st5" points="207.1,137.9 170.2,281.7 313.9,332.2 397.5,262.2 449.9,104.9 364.5,167 "/>
<rect x="282.9" y="100.5" transform="matrix(0.2552 -0.9669 0.9669 0.2552 44.2825 403.1734)" class="st6" width="1.9" height="144.7"/>
<rect x="279" y="110.2" transform="matrix(0.2552 -0.9669 0.9669 0.2552 31.9728 406.6427)" class="st6" width="1.9" height="144.7"/>
<rect x="277.1" y="120" transform="matrix(0.2552 -0.9669 0.9669 0.2552 21.1094 412.1234)" class="st6" width="1.9" height="144.7"/>
<rect x="275.2" y="129.7" transform="matrix(0.2552 -0.9669 0.9669 0.2552 10.3112 417.4442)" class="st6" width="1.9" height="144.7"/>
<rect x="273.2" y="139.4" transform="matrix(0.2552 -0.9669 0.9669 0.2552 -0.5996 422.8123)" class="st6" width="1.9" height="144.7"/>
<rect x="271.2" y="149.1" transform="matrix(0.2552 -0.9669 0.9669 0.2552 -11.3978 428.1331)" class="st6" width="1.9" height="144.7"/>
<rect x="269.3" y="158.8" transform="matrix(0.2552 -0.9669 0.9669 0.2552 -22.1961 433.454)" class="st6" width="1.9" height="144.7"/>
<rect x="267.3" y="168.5" transform="matrix(0.2552 -0.9669 0.9669 0.2552 -33.1068 438.8222)" class="st6" width="1.9" height="144.7"/>
<rect x="265.4" y="178.2" transform="matrix(0.2552 -0.9669 0.9669 0.2552 -43.905 444.143)" class="st6" width="1.9" height="144.7"/>
<path class="st2" d="M147.9,243.6c0,0,43.7-26.1,63.1-8.6s-56.3,42.7-56.3,42.7L147.9,243.6z"/>
<path class="st3" d="M100.2,256.4l56.3-21.4c0,0-9.7,36.9,9.7,38.9l-27.2,33C139.1,306.9,84.7,306.9,100.2,256.4z"/>
<polygon class="st6" points="248.5,255.6 323.3,280.8 305.6,319.4 230.8,294.2 "/>
<polygon class="st4" points="381,173.8 437.3,131.1 421.8,183.5 363.5,226.3 "/>
<rect x="346.6" y="223.4" transform="matrix(0.7967 -0.6044 0.6044 0.7967 -57.9245 276.4594)" class="st6" width="70.7" height="1.9"/>
<rect x="342.7" y="244.7" transform="matrix(0.7967 -0.6044 0.6044 0.7967 -71.6128 278.414)" class="st6" width="70.7" height="1.9"/>
<path class="st2" d="M413,237c0,0,48.6-29.1,17.5-40.8s-31.1,33-31.1,33S397.5,238.9,413,237z"/>
<polygon class="st7" points="128.4,171.9 126.5,247.7 156.6,239.1 132.3,239.9 "/>
</svg>
