<?xml version="1.0" encoding="utf-8"?>
<!-- Generator: Adobe Illustrator 24.2.3, SVG Export Plug-In . SVG Version: 6.00 Build 0)  -->
<svg version="1.1" id="bfd7ed38-e2c2-4ce4-aa7c-70bac4bc4918"
	 xmlns="http://www.w3.org/2000/svg" xmlns:xlink="http://www.w3.org/1999/xlink" x="0px" y="0px" viewBox="0 0 461.4 372.6"
	 style="enable-background:new 0 0 461.4 372.6;" xml:space="preserve">
<style type="text/css">
	.st0{fill:#CCCCCC;}
	.st1{fill:#FFB76C;}
	.st2{opacity:0.1;enable-background:new    ;}
	.st3{fill:#F2F2F2;}
	.st4{fill:#FFFFFF;}
	.st5{fill:#323333;}
</style>
<path class="st0" d="M358.8,200.1c-29.2-21.9-75-42.5-125.6-56.7c-46.1-12.9-91-19.2-126.6-17.6l-0.2-4.1
	c36-1.6,81.4,4.7,127.9,17.7c51.1,14.3,97.4,35.2,127,57.4L358.8,200.1z"/>
<path class="st1" d="M355.8,216.9c0,19.4-4,38.5-11.9,56.2c-0.7,1.5-1.3,2.9-2.1,4.4c-33.5,68.6-116.2,97-184.8,63.6
	c-47.5-23.2-77.6-71.4-77.6-124.2c0-3.2,0.1-6.4,0.3-9.5c0.1-1.6,0.2-3.2,0.4-4.8C88,126.7,156,71.6,231.9,79.5
	C302.3,86.8,355.8,146.1,355.8,216.9L355.8,216.9z"/>
<path class="st2" d="M343.8,273.1c-0.7,1.5-1.3,2.9-2.1,4.4c-4,0.4-8.3,0.8-12.8,1c-3.7,0.2-7.5,0.2-11.4,0.2
	c-33.9,0-74.8-6.3-116.5-18c-46.5-13-88.6-31.3-118.4-51.3c-1-0.7-2-1.4-3-2.1c0.1-1.6,0.2-3.2,0.4-4.8c1.6,1.1,3.2,2.3,4.9,3.4
	c29.5,19.8,71.2,37.9,117.2,50.8c41.4,11.6,81.8,17.8,115.3,17.8c3.8,0,7.6-0.1,11.2-0.2C334.2,274.1,339.2,273.7,343.8,273.1z"/>
<path class="st0" d="M317.7,275.4c-33.9,0-74.8-6.3-116.5-18c-46.5-13-88.6-31.3-118.4-51.3c-30.5-20.5-44.8-40.7-40.3-56.8
	c4.5-16.2,27.2-26,64-27.6l0.2,4.1c-17.1,0.8-31.1,3.3-41.5,7.6c-10.4,4.2-16.7,10-18.6,17c-2,7.1,0.4,15.2,7.1,24.2
	s17.3,18.5,31.5,28.1c29.5,19.8,71.2,37.9,117.2,50.8c41.4,11.6,81.8,17.8,115.3,17.8c3.8,0,7.6-0.1,11.2-0.2
	c17.1-0.8,31.1-3.3,41.5-7.6c10.4-4.2,16.7-10,18.6-17c3.6-12.7-7.2-29.1-30.2-46.4l2.5-3.3c11.9,8.9,20.6,17.6,26.1,26
	c5.8,9,7.7,17.3,5.6,24.8c-4.5,16.2-27.2,26-64,27.6C325.3,275.3,321.5,275.4,317.7,275.4z"/>
<circle class="st3" cx="221.2" cy="52.2" r="1.6"/>
<circle class="st0" cx="11.2" cy="119.8" r="2.7"/>
<circle class="st0" cx="5.4" cy="226.4" r="5.4"/>
<circle class="st0" cx="328.4" cy="61.7" r="3.6"/>
<circle class="st0" cx="455.6" cy="210.6" r="5.8"/>
<circle class="st0" cx="410" cy="117.6" r="2.5"/>
<circle class="st0" cx="106.7" cy="85.5" r="3.9"/>
<circle class="st0" cx="401.3" cy="198.8" r="2.5"/>
<circle class="st0" cx="18" cy="302.4" r="3.1"/>
<circle class="st0" cx="80.9" cy="345.7" r="3.4"/>
<polygon class="st0" points="178.7,6.6 172.1,6.6 172.1,0 168.5,0 168.5,6.6 161.9,6.6 161.9,10.2 168.5,10.2 168.5,16.9 
	172.1,16.9 172.1,10.2 178.7,10.2 "/>
<polygon class="st0" points="332.9,366.2 328.7,366.2 328.7,362 326.5,362 326.5,366.2 322.3,366.2 322.3,368.4 326.5,368.4 
	326.5,372.6 328.7,372.6 328.7,368.4 332.9,368.4 "/>
<polygon class="st0" points="429.2,344.8 426.1,344.8 426.1,341.7 424.4,341.7 424.4,344.8 421.3,344.8 421.3,346.5 424.4,346.5 
	424.4,349.6 426.1,349.6 426.1,346.5 429.2,346.5 "/>
<circle class="st2" cx="219.7" cy="108.7" r="11.6"/>
<circle class="st2" cx="130.5" cy="193.7" r="11.6"/>
<circle class="st2" cx="258.7" cy="310.3" r="11.6"/>
<circle class="st2" cx="219.7" cy="211.6" r="11.6"/>
<circle class="st2" cx="136.3" cy="275.5" r="11.6"/>
<circle class="st2" cx="281.9" cy="149.4" r="11.6"/>
<circle class="st2" cx="320.5" cy="228" r="11.6"/>
<circle class="st4" cx="219.7" cy="161" r="15.3"/>
<path class="st0" d="M219.7,138.8c-12,0-21.6,9.7-21.6,21.6s21.6,51.2,21.6,51.2s21.6-39.2,21.6-51.2S231.6,138.8,219.7,138.8z
	 M219.7,171c-5.5,0-10-4.5-10-10s4.5-10,10-10s10,4.5,10,10S225.2,171,219.7,171L219.7,171L219.7,171z"/>
<circle class="st4" cx="136.3" cy="226.4" r="15.3"/>
<path class="st0" d="M136.3,204.2c-12,0-21.6,9.7-21.6,21.6s21.6,51.2,21.6,51.2s21.6-39.2,21.6-51.2
	C157.9,213.9,148.2,204.2,136.3,204.2z M136.3,236.4c-5.5,0-10-4.5-10-10s4.5-10,10-10s10,4.5,10,10
	C146.3,232,141.8,236.4,136.3,236.4L136.3,236.4L136.3,236.4z"/>
<circle class="st4" cx="320.5" cy="178.9" r="15.3"/>
<path class="st0" d="M320.5,156.7c-12,0-21.6,9.7-21.6,21.6l0,0c0,12,21.6,51.2,21.6,51.2s21.6-39.2,21.6-51.2
	C342.1,166.4,332.4,156.7,320.5,156.7L320.5,156.7z M320.5,188.9c-5.5,0-10-4.5-10-10s4.5-10,10-10s10,4.5,10,10
	C330.5,184.5,326,188.9,320.5,188.9L320.5,188.9z"/>
<circle class="st4" cx="219.7" cy="58.1" r="15.3"/>
<path class="st0" d="M219.7,35.9c-12,0-21.6,9.7-21.6,21.6c0,12,21.6,51.2,21.6,51.2s21.6-39.2,21.6-51.2
	C241.3,45.6,231.6,35.9,219.7,35.9z M219.7,68.1c-5.5,0-10-4.5-10-10s4.5-10,10-10s10,4.5,10,10S225.2,68.1,219.7,68.1L219.7,68.1
	L219.7,68.1z"/>
<circle class="st4" cx="258.7" cy="261.2" r="15.3"/>
<path class="st5" d="M258.7,239.1c-12,0-21.6,9.7-21.6,21.6c0,12,21.6,51.2,21.6,51.2s21.6-39.2,21.6-51.2
	C280.4,248.8,270.7,239.1,258.7,239.1L258.7,239.1z M258.7,271.3c-5.5,0-10-4.5-10-10s4.5-10,10-10s10,4.5,10,10
	S264.3,271.3,258.7,271.3L258.7,271.3z"/>
<circle class="st4" cx="130.5" cy="143.6" r="15.3"/>
<path class="st5" d="M130.5,121.4c-12,0-21.6,9.7-21.6,21.6s21.6,51.2,21.6,51.2s21.6-39.2,21.6-51.2S142.4,121.4,130.5,121.4z
	 M130.5,153.6c-5.5,0-10-4.5-10-10s4.5-10,10-10s10,4.5,10,10S136,153.6,130.5,153.6L130.5,153.6z"/>
<circle class="st4" cx="281.9" cy="100.8" r="15.3"/>
<path class="st5" d="M281.9,78.6c-12,0-21.6,9.7-21.6,21.6c0,12,21.6,51.2,21.6,51.2s21.6-39.2,21.6-51.2
	C303.6,88.3,293.9,78.6,281.9,78.6z M281.9,110.8c-5.5,0-10-4.5-10-10s4.5-10,10-10s10,4.5,10,10S287.5,110.8,281.9,110.8
	L281.9,110.8L281.9,110.8L281.9,110.8z"/>
</svg>
