<?xml version="1.0" encoding="utf-8"?>
<!-- Generator: Adobe Illustrator 24.2.3, SVG Export Plug-In . SVG Version: 6.00 Build 0)  -->
<svg version="1.1" id="a31e7729-94ce-4b70-883a-94bdaa3e886c"
	 xmlns="http://www.w3.org/2000/svg" xmlns:xlink="http://www.w3.org/1999/xlink" x="0px" y="0px" viewBox="0 0 674.6 557.5"
	 style="enable-background:new 0 0 674.6 557.5;" xml:space="preserve">
<style type="text/css">
	.st0{fill:#323333;}
	.st1{fill:#9F616A;}
	.st2{opacity:0.2;enable-background:new    ;}
	.st3{fill:#2F2E41;}
	.st4{fill:#C6C6C6;}
	.st5{fill:#FFB76C;}
	.st6{fill:#FFFFFF;}
</style>
<path class="st0" d="M42.4,255.3c0.9,56.2,21.9,62.3,47.7,56.4c29.5-6.7,53.6-27.7,65.5-55.4l8.2-19.1c11.4-26.5-0.9-57.2-27.4-68.6
	l0,0c-26.5-11.4-57.2,0.9-68.6,27.4l0,0C41.4,206.3,36.2,227.8,42.4,255.3z"/>
<path class="st1" d="M208.2,142.2l7.9-13.4c3.5-6,1.6-13.7-4.4-17.2c-0.8-0.5-1.7-0.9-2.7-1.2l0,0c-6.6-2.1-13.7,1.7-15.7,8.3
	c-0.4,1.3-0.6,2.7-0.6,4.1l0.5,14.4L156,239.1l20.3,4.2L208.2,142.2z"/>
<path class="st1" d="M12.5,393.4l-9.7,12.1c-4.4,5.4-3.5,13.3,1.9,17.7c0.8,0.6,1.6,1.1,2.5,1.6l0,0c6.3,3,13.8,0.3,16.8-6
	c0.6-1.3,1-2.6,1.1-4l1.6-14.3L78,304.9l-19.5-7.1L12.5,393.4z"/>
<path class="st0" d="M72.7,494.3l1.4,17.2l0.3,4l95.3-9.2c11.5-1.3,19.8-11.7,18.5-23.2c-0.2-2.2-0.8-4.3-1.7-6.2l-30.7-66
	l-10.6-22.8l-46-10.6c-37.9,29-3.8,61.1,39.2,93.5c1.7,1.3,3.4,2.5,5.1,3.8L72.7,494.3z"/>
<path class="st0" d="M40.6,554L40.6,554c2.4,0.3,4.7-0.6,6.2-2.4L78,513.8l-1.8-17.7l-10.6-6.4c-3.3-2-7.6-0.9-9.6,2.4
	c-0.2,0.3-0.4,0.7-0.5,1l-20.3,51.5c-1.4,3.5,0.3,7.5,3.9,8.9C39.5,553.8,40,553.9,40.6,554z"/>
<path class="st2" d="M67.4,490.8l1.8,21.2l5-0.5l90.4-8.7c11.5-1.3,19.8-11.7,18.5-23.2c-0.2-2.2-0.8-4.3-1.7-6.2L156,416.5V411
	l-10.6-22.8l-46-10.6c-37.9,29-3.8,61.1,39.2,93.5l-0.2,0.3L67.4,490.8z"/>
<path class="st3" d="M31.7,546.9L31.7,546.9c2.4,0.3,4.7-0.6,6.2-2.4l31.2-37.7L67.4,489l-10.6-6.4c-3.3-2-7.6-0.9-9.6,2.4
	c-0.2,0.3-0.4,0.7-0.5,1l-20.3,51.5c-1.4,3.5,0.3,7.5,3.9,8.9C30.7,546.7,31.2,546.8,31.7,546.9z"/>
<path class="st0" d="M63.8,487.3l1.8,21.2l95.3-9.2c11.5-1.3,19.8-11.7,18.5-23.2c-0.2-2.1-0.8-4.2-1.7-6.2L152.3,413v-31.9
	l-62-10.6c-39.4,30.2-1,63.6,44.3,97.4L63.8,487.3z"/>
<circle class="st1" cx="124" cy="211.1" r="26.6"/>
<path class="st1" d="M88.6,255.4l37.2,24.8l31.9-7.1L140,255.4v-26.6l-28.3-1.8C111,237.7,105,247.4,88.6,255.4z"/>
<path class="st4" d="M83.3,379.3l69,8.9l15.9-74.3c7.4-19.7,3.2-37.2-10.5-52.7c-1.1-5.4-5.7-9.3-11.2-9.5L140,252
	c0.7,23.5-16.6,17.8-42.5-1.8l-3.1,0.9c-8.4,2.5-13.6,10.8-12.3,19.4l2.9,19.3c1.2,7.6,3.1,15.2,5.6,22.5
	C97.6,333.3,95,355.7,83.3,379.3z"/>
<path class="st4" d="M51.5,299.6l31.9,10.6l14.2-51.3l-4.8-2.2c-8.3-3.8-18-0.5-22.3,7.5L51.5,299.6z"/>
<polygon class="st4" points="145.3,251.8 163,271.3 184.2,237.7 157.7,223.5 "/>
<path class="st3" d="M93.1,203.2c16.7,6.3,34.5,5.6,53.1,0V182H93.1V203.2z"/>
<path class="st5" d="M667,128.3l-449.9,40.3c-4.6,0.4-8.7-3-9.1-7.6L198,49.4c-0.4-4.6,3-8.7,7.6-9.1L655.5,0c4.6-0.4,8.7,3,9.1,7.6
	l10,111.6C674.9,123.8,671.6,127.9,667,128.3z"/>
<circle class="st6" cx="269.7" cy="99.3" r="35.1"/>
<path class="st6" d="M348.4,68.7c-3.2,0.3-5.6,3.1-5.3,6.4c0.3,3.2,3.1,5.6,6.3,5.3l274.9-24.6c3.2-0.3,5.6-3.1,5.3-6.3
	s-3.1-5.6-6.3-5.3l0,0L348.4,68.7z"/>
<path class="st6" d="M351.5,103.7c-3.2,0.3-5.6,3.1-5.3,6.3s3.1,5.6,6.3,5.3l0,0l274.9-24.6c3.2-0.3,5.6-3.1,5.3-6.3
	c-0.3-3.2-3.1-5.6-6.3-5.3l0,0L351.5,103.7z"/>
</svg>
