<svg id="b6fe4ea4-91cd-4e88-acbb-2663d3326f54" xmlns="http://www.w3.org/2000/svg" viewBox="0 0 1013.13 845.1"><defs><style>.cls-1{fill:#ffb76c;}.cls-2{fill:#c6c6c6;}.cls-3{fill:#d0cde1;}.cls-4{fill:#a0616a;}.cls-5{fill:#323333;}.cls-6{opacity:0.15;isolation:isolate;}.cls-7{fill:#3f3d56;}</style></defs><path class="cls-1" d="M1017.43,270.3c0,35.2-8.3,64.1-22.8,88.9a178.31,178.31,0,0,1-16.2,23.2c-53.1,65-151.9,100.5-241.1,158.1-263.5,170-292-102.4-280.1-270.3,4.8-67.7,31.2-129.8,73.1-177.3a279.16,279.16,0,0,1,28.5-28c47.6-40.5,109-65,178.6-65,119.2.1,221,72.1,261.4,173.4a262.21,262.21,0,0,1,18.6,97Z" transform="translate(-60.41 0.1)"/><path class="cls-2" d="M797,60.9,530.33,93a279.16,279.16,0,0,1,28.5-28Z" transform="translate(-60.41 0.1)"/><path class="cls-2" d="M994.63,359.2a178.31,178.31,0,0,1-16.2,23.2L750,355Z" transform="translate(-60.41 0.1)"/><path class="cls-2" d="M1008.23,201.2,621,151l377.9,22.3A285.09,285.09,0,0,1,1008.23,201.2Z" transform="translate(-60.41 0.1)"/><path class="cls-1" d="M483.43,72a12.75,12.75,0,0,1-.1,2,28,28,0,1,1-52.7-15.1,18.52,18.52,0,0,1,2.1-3.3,28,28,0,0,1,50.6,14.1A17.7,17.7,0,0,1,483.43,72Z" transform="translate(-60.41 0.1)"/><path class="cls-3" d="M483.43,72a12.75,12.75,0,0,1-.1,2l-41.9-5,41.9.7A17.7,17.7,0,0,1,483.43,72Z" transform="translate(-60.41 0.1)"/><path class="cls-3" d="M473.43,86.1l-38.8,4.7a28.83,28.83,0,0,1-3-3.9Z" transform="translate(-60.41 0.1)"/><path class="cls-3" d="M462.43,55.1l-31.8,3.8a18.52,18.52,0,0,1,2.1-3.3Z" transform="translate(-60.41 0.1)"/><path class="cls-1" d="M867.23,576.1c-.3.6-.7,1.2-1,1.8a28,28,0,1,1-47.4-29.8,28.77,28.77,0,0,1,8-8.3,37.91,37.91,0,0,1,3.4-2,28,28,0,0,1,38.1,36.2C867.93,574.8,867.53,575.4,867.23,576.1Z" transform="translate(-60.41 0.1)"/><path class="cls-3" d="M867.23,576.1c-.3.6-.7,1.2-1,1.8l-34.7-24.1,36.7,20.3C867.93,574.8,867.53,575.4,867.23,576.1Z" transform="translate(-60.41 0.1)"/><path class="cls-3" d="M851.73,583.9l-36.4-14.1a26.38,26.38,0,0,1-.8-4.9Z" transform="translate(-60.41 0.1)"/><path class="cls-3" d="M856.53,551.4l-29.8-11.5a37.91,37.91,0,0,1,3.4-2Z" transform="translate(-60.41 0.1)"/><path class="cls-1" d="M1065.53,93.5c.5.5.9,1,1.4,1.5a28,28,0,1,1-42.8,36,28.24,28.24,0,0,1-5.4-10.1,16.06,16.06,0,0,1-.8-3.8,27.93,27.93,0,0,1,46-25.2Z" transform="translate(-60.41 0.1)"/><path class="cls-3" d="M1065.53,93.5c.5.5.9,1,1.4,1.5l-33.5,25.7,30.5-28.7A20.59,20.59,0,0,1,1065.53,93.5Z" transform="translate(-60.41 0.1)"/><path class="cls-3" d="M1068.23,110.5l-24.5,30.5a27.81,27.81,0,0,1-4.9-.8Z" transform="translate(-60.41 0.1)"/><path class="cls-3" d="M1038.73,96l-20.1,24.9a16.06,16.06,0,0,1-.8-3.8Z" transform="translate(-60.41 0.1)"/><path class="cls-4" d="M540.23,609.5s61.4,2.6,61.4,17.9-69.1,0-69.1,0Z" transform="translate(-60.41 0.1)"/><path class="cls-5" d="M448,845l-115.2-7.7-5.1-61.4-25.6,53.8-112.7-15.4c2.6-97.3,43.5-192,46.1-204.8s8.7-65.7,8.7-65.7c11.2-23.7,69.8-26,115.8-23.8,19,.9,35.9,2.5,46.4,3.7,6.9.8,11,1.3,11,1.3,18.4,18.9,30.2,44.7,37.5,73.5C481,702.2,448,845,448,845Z" transform="translate(-60.41 0.1)"/><circle class="cls-4" cx="259.62" cy="187.1" r="64"/><path class="cls-4" d="M276.53,202.4s-17.9,79.4-46.1,102.4,110.1,0,110.1,0-30.7-51.2-7.7-74.2S276.53,202.4,276.53,202.4Z" transform="translate(-60.41 0.1)"/><path class="cls-2" d="M407,530.1l-42.5,4.7L245.83,548s-.6-1.5-1.6-4.3c-8.6-23.5-50.2-138-54.8-172.4-5.1-38.4,48.6-84.5,48.6-84.5s51.2-10.2,66.6-10.2,76.8,23,76.8,23l23,206.2,2,17.8Z" transform="translate(-60.41 0.1)"/><path class="cls-6" d="M454.73,598.5,368.63,548s-1.5-4.9-4.1-13.2c-1.3-4.1-2.8-9.2-4.6-14.8-9.9-31.9-26.6-84.5-40-123-20.5-58.9,79.4,105,79.4,105l5,3.9,2,17.8c6.9.8,11,1.3,11,1.3C435.63,543.9,447.53,569.7,454.73,598.5Z" transform="translate(-60.41 0.1)"/><path class="cls-2" d="M340.53,304.8s-25.6,33.3-5.1,92.2S384,548,384,548l148.5,87L553,609.4,414.73,501.9s-5.1-194.6-30.7-202.3S340.53,304.8,340.53,304.8Z" transform="translate(-60.41 0.1)"/><path class="cls-4" d="M213.83,528.8s35.8,74.2,51.2,66.6-38.4-84.5-38.4-84.5Z" transform="translate(-60.41 0.1)"/><path class="cls-2" d="M209.93,325.3,74.23,437.9s-51.2,35.8,43.5,61.4,102.4,41,102.4,41,10.2-33.3,23-28.2l-110-53.7,89.6-53.8Z" transform="translate(-60.41 0.1)"/><path class="cls-5" d="M155.43,239.5c7.1-3.5,22.8-10.6,36.2-19.2-.9-27.9,2.5-53.2,12.6-66.6,5.6-12.8,17.5-25.6,26.8-35.8,22.8-24.8,73.2-38.7,82.2-26.3,67.6,1.3,74.7,54.3,74.7,54.3-.4,22.2-23.4,22.9-43.6,22.1,1.8,15.1-3,30.9-17,37.8-26.7,13.3-34.7,30.7-21.3,42.7s37.3,44,5.3,52-36,24-26.7,30.7-21.3-12-21.3-12-5.3,32-33.3,24c-2.5-.7-5-2.6-7.5-5.3-7.6,8.3-14.3,13.2-19.4,13.3-29.1.2-25.6-32.1-25.6-32.1s-34.6,9.7-23.8,5.8,11.3-20.4-17.4-36.7S139.33,247.5,155.43,239.5Z" transform="translate(-60.41 0.1)"/><path class="cls-5" d="M512.83,323.2l-.5-.1,1.1,4.3a110,110,0,0,0,4.7,17.7l33.2,126.3a21.48,21.48,0,0,0,17.4,15.7l67.8,10.5a21.15,21.15,0,0,0,22.1-11.1L723,366.2a101.74,101.74,0,0,0,5.5-10.3l2.2-4.1h-.3a113.84,113.84,0,1,0-217.6-28.6Z" transform="translate(-60.41 0.1)"/><path class="cls-3" d="M640.73,505.9a21.86,21.86,0,0,1-3.6-.3l-70.8-11a23.25,23.25,0,0,1-19-17.2l-34.7-132a115.57,115.57,0,0,1-4.9-18.6l-.9-5.8a120,120,0,0,1,103.8-134.3,122,122,0,0,1,33.6.4l-.3,2a118.21,118.21,0,0,0-134.7,98.7,122.45,122.45,0,0,0-.3,34.2l.7,4.3a115.72,115.72,0,0,0,4.8,18.4L549.23,477a21.48,21.48,0,0,0,17.4,15.7l70.8,11a21.3,21.3,0,0,0,22.1-11l1.8.9A23.78,23.78,0,0,1,640.73,505.9Z" transform="translate(-60.41 0.1)"/><rect class="cls-3" x="575.73" y="409.84" width="125.3" height="2.6" transform="translate(-27.64 869.29) rotate(-69.89)"/><rect class="cls-3" x="588.41" y="340.99" width="2.6" height="125.3" transform="translate(-77.56 26.38) rotate(-2.52)"/><path class="cls-7" d="M634.73,565.7l-90.8-14a2.54,2.54,0,0,1-2.1-3,2.44,2.44,0,0,1,2.9-2.1l90.8,14a2.58,2.58,0,0,1,2.2,2.9,2.66,2.66,0,0,1-3,2.2Z" transform="translate(-60.41 0.1)"/><path class="cls-7" d="M637,546.4l-90.8-14a2.57,2.57,0,1,1,.7-5.1h0l90.8,14a2.58,2.58,0,0,1,2.2,2.9,2.36,2.36,0,0,1-2.9,2.2Z" transform="translate(-60.41 0.1)"/><path class="cls-7" d="M639.33,527.2l-90.8-14a2.54,2.54,0,0,1-2.1-3,2.44,2.44,0,0,1,2.9-2.1l90.8,14a2.58,2.58,0,0,1-.8,5.1Z" transform="translate(-60.41 0.1)"/><path class="cls-7" d="M586.53,576.9c18,2.8,34.1-5,36.1-17.4l-65.2-10C555.43,561.9,568.53,574.1,586.53,576.9Z" transform="translate(-60.41 0.1)"/><path class="cls-3" d="M619.13,327.1c-3.9-.6-7.1-3.7-8.8-5.7-.6-.7-1.1-1.4-1.7-2.1-2-2.5-4-5-6.7-6.2-5.9-2.8-12.9,1.1-19,5.2l-1.5-2.1c6.7-4.6,14.4-8.8,21.5-5.5,3.2,1.5,5.4,4.3,7.6,6.9.5.7,1.1,1.4,1.6,2,1.8,2.1,5.5,5.6,9.4,4.8A13.05,13.05,0,0,0,626,322a21.37,21.37,0,0,1,3.2-2,12.68,12.68,0,0,1,13.9,2,18,18,0,0,1,1.9,2c1.2,1.3,2.3,2.6,3.7,3,2.1.7,4.3-.5,6.7-1.8s5-2.7,7.8-2.3h.3c5.1.8,7.4,6.4,8.8,10.6l-2.5.8c-1.8-5.7-4-8.6-6.9-8.9-2.1-.2-4.1.9-6.3,2.1-2.7,1.5-5.6,3-8.7,2-2.1-.7-3.5-2.3-4.9-3.8-.5-.6-1.1-1.2-1.7-1.8a10.11,10.11,0,0,0-11-1.6,16.65,16.65,0,0,0-2.8,1.8,14.36,14.36,0,0,1-5.5,2.8A5.66,5.66,0,0,1,619.13,327.1Z" transform="translate(-60.41 0.1)"/></svg>