<?xml version="1.0" encoding="utf-8"?>
<!-- Generator: Adobe Illustrator 24.2.3, SVG Export Plug-In . SVG Version: 6.00 Build 0)  -->
<svg version="1.1" id="Capa_1" xmlns="http://www.w3.org/2000/svg" xmlns:xlink="http://www.w3.org/1999/xlink" x="0px" y="0px"
	 viewBox="0 0 122.7 122.7" style="enable-background:new 0 0 122.7 122.7;" xml:space="preserve">
<style type="text/css">
	.st0{fill:#323333;}
</style>
<g>
	<circle class="st0" cx="19.5" cy="12.2" r="12.1"/>
	<path class="st0" d="M6,66.7h1.2v24c0,3.3,2.7,6,6,6h12.6c3.3,0,6-2.7,6-6v-1.4c-1.1-2.1-1.8-4.5-1.8-7V50.9c0-6.1,3.7-11.4,9-13.7
		v-2.4c0-3.3-2.7-6-6-6H6c-3.3,0-6,2.7-6,6v25.9C0,64,2.6,66.7,6,66.7z"/>
	<circle class="st0" cx="103.3" cy="12.2" r="12.1"/>
	<path class="st0" d="M83.7,34.7v2.4c5.3,2.3,9,7.6,9,13.7v31.3c0,2.5-0.6,4.9-1.8,7v1.4c0,3.3,2.7,6,6,6h12.6c3.3,0,6-2.7,6-6v-24
		h1.2c3.3,0,6-2.7,6-6V34.7c0-3.3-2.7-6-6-6h-27C86.4,28.7,83.7,31.4,83.7,34.7z"/>
	<path class="st0" d="M39.1,50.9L39.1,50.9v9.8v21.6c0,3.3,2.7,6,6,6h2.3v28.3c0,3.3,2.7,6,6,6h16.1c3.3,0,6-2.7,6-6V88.2h2.3
		c3.3,0,6-2.7,6-6V60.7v-9.8l0,0c0-3.3-2.7-6-6-6H45.1C41.7,44.9,39.1,47.6,39.1,50.9z"/>
	<circle class="st0" cx="61.4" cy="26" r="13.9"/>
</g>
</svg>
