<?xml version="1.0" encoding="utf-8"?>
<!-- Generator: Adobe Illustrator 24.2.3, SVG Export Plug-In . SVG Version: 6.00 Build 0)  -->
<svg version="1.1" id="Capa_1" xmlns="http://www.w3.org/2000/svg" xmlns:xlink="http://www.w3.org/1999/xlink" x="0px" y="0px"
	 viewBox="0 0 512.7 512.7" style="enable-background:new 0 0 512.7 512.7;" xml:space="preserve">
<style type="text/css">
	.st0{fill:#323333;}
</style>
<g>
	<g>
		<path class="st0" d="M450.1,61.5c-42.7-32-119.5-42.7-194.1,23.5c-76.8-64-151.5-53.3-194.1-23.5c-42.7,29.9-72.5,119.5-38.4,192
			c10.7,19.2,21.3,36.3,36.3,53.3h93.9L192,172.4c6.4-19.2,34.1-19.2,40.5,0l29.9,87.5l19.2-27.7c8.5-12.8,29.9-10.7,36.3,2.1
			l42.7,85.3l-38.4,19.2l-25.6-53.3l-21.3,34.1c-8.5,14.9-32,12.8-38.4-4.3l-21.3-61.9L192,334.5c-2.1,8.5-10.7,14.9-21.3,14.9H96
			c44.8,44.8,93.9,87.5,147.2,123.7c6.4,4.3,17.1,4.3,23.5,0s168.5-117.3,219.7-219.7S507.7,104.1,450.1,61.5z"/>
	</g>
</g>
<g>
	<g>
		<polygon class="st0" points="59.7,306.8 0,306.8 0,349.5 96,349.5 		"/>
	</g>
</g>
</svg>
