<svg id="圖層_1" data-name="圖層 1" xmlns="http://www.w3.org/2000/svg" viewBox="0 0 95.57 12.77"><defs><style>.cls-1{fill:#323333;}</style></defs><path class="cls-1" d="M17.42,3.38,11.5,12.77H9.3l-6-9.39H0V0H4.52l5.92,8.82L16,0h4.69V12.77H17.42ZM0,4.91v7.86H3.29V4.91Z"/><path class="cls-1" d="M26.35,12.77H23.06V0h3.29V12.77Z"/><path class="cls-1" d="M46.18,7.5V5.05a2,2,0,0,0-.92-1.17,3.48,3.48,0,0,0-1.93-.5H28.74V0h4.15L45.31,0A4.69,4.69,0,0,1,48.25,1a2.8,2.8,0,0,1,1.2,2.25V9.59a2.77,2.77,0,0,1-1.2,2.25,4.69,4.69,0,0,1-2.94.93H28.74v-8H32V9.3H43.44a3.53,3.53,0,0,0,1.9-.53A1.52,1.52,0,0,0,46.18,7.5Z"/><path class="cls-1" d="M51.8,9.59V3.18A2.75,2.75,0,0,1,53,.93,4.65,4.65,0,0,1,56,0L68.37,0A4.69,4.69,0,0,1,71.31,1a2.8,2.8,0,0,1,1.2,2.25V9.59a2.77,2.77,0,0,1-1.2,2.25,4.69,4.69,0,0,1-2.94.93H56A4.65,4.65,0,0,1,53,11.84,2.75,2.75,0,0,1,51.8,9.59ZM69.24,7.5V5.05a2,2,0,0,0-.92-1.17,3.48,3.48,0,0,0-1.93-.5H57.88a3.57,3.57,0,0,0-2,.5,1.57,1.57,0,0,0-.84,1.21V7.55a1.5,1.5,0,0,0,.79,1.23,3.52,3.52,0,0,0,2,.52h8.53a3.72,3.72,0,0,0,2-.53A1.52,1.52,0,0,0,69.24,7.5Z"/><path class="cls-1" d="M74.86,3.38v-.2A2.75,2.75,0,0,1,76.07.93,4.65,4.65,0,0,1,79,0L91.43,0l4.14,0V3.38H74.86Zm0,6v3.38H79l12.42,0a4.86,4.86,0,0,0,3-.83,2.89,2.89,0,0,0,1.18-2.53V7.94a2.61,2.61,0,0,0-1-2.35,5.82,5.82,0,0,0-3.13-.68H74.86A2.62,2.62,0,0,0,76,7.15a5.47,5.47,0,0,0,3,.79H92.15V9.39Z"/></svg>